<?xml version="1.0" encoding="UTF-8" standalone="no"?>
<!DOCTYPE svg PUBLIC "-//W3C//DTD SVG 1.1//EN" "http://www.w3.org/Graphics/SVG/1.1/DTD/svg11.dtd">
<svg width="100%" height="100%" viewBox="0 0 684 137" version="1.1" xmlns="http://www.w3.org/2000/svg" xmlns:xlink="http://www.w3.org/1999/xlink" xml:space="preserve" xmlns:serif="http://www.serif.com/" style="fill-rule:evenodd;clip-rule:evenodd;stroke-linecap:round;stroke-linejoin:round;stroke-miterlimit:1.5;">
    <g transform="matrix(150.15,0,0,150.15,-10.2102,107.807)">
        <path d="M0.068,-0.354C0.068,-0.404 0.077,-0.451 0.096,-0.495C0.115,-0.538 0.141,-0.577 0.174,-0.611C0.207,-0.644 0.246,-0.671 0.29,-0.69C0.333,-0.708 0.38,-0.718 0.43,-0.718C0.48,-0.718 0.527,-0.708 0.571,-0.69C0.615,-0.671 0.654,-0.644 0.687,-0.611C0.72,-0.577 0.747,-0.538 0.766,-0.495C0.785,-0.451 0.794,-0.404 0.794,-0.354C0.794,-0.304 0.785,-0.257 0.766,-0.214C0.747,-0.17 0.72,-0.131 0.687,-0.098C0.654,-0.065 0.615,-0.039 0.571,-0.02C0.527,-0.001 0.48,0.008 0.43,0.008C0.38,0.008 0.333,-0.001 0.29,-0.019C0.246,-0.037 0.207,-0.062 0.174,-0.095C0.141,-0.128 0.115,-0.166 0.096,-0.21C0.077,-0.254 0.068,-0.302 0.068,-0.354ZM0.118,-0.353C0.118,-0.31 0.126,-0.269 0.142,-0.231C0.158,-0.193 0.18,-0.16 0.209,-0.131C0.238,-0.102 0.271,-0.08 0.309,-0.064C0.346,-0.047 0.386,-0.039 0.429,-0.039C0.473,-0.039 0.514,-0.047 0.552,-0.064C0.59,-0.08 0.623,-0.102 0.652,-0.131C0.681,-0.16 0.703,-0.193 0.72,-0.231C0.736,-0.269 0.744,-0.31 0.744,-0.354C0.744,-0.397 0.736,-0.438 0.72,-0.477C0.703,-0.515 0.681,-0.549 0.652,-0.578C0.623,-0.607 0.59,-0.629 0.552,-0.646C0.514,-0.663 0.473,-0.671 0.43,-0.671C0.386,-0.671 0.345,-0.663 0.307,-0.646C0.269,-0.628 0.236,-0.605 0.208,-0.576C0.179,-0.547 0.157,-0.513 0.142,-0.475C0.126,-0.436 0.118,-0.396 0.118,-0.353Z" style="fill:rgb(54,45,59);fill-rule:nonzero;"/>
    </g>
    <g transform="matrix(150.15,0,0,150.15,107.657,107.807)">
        <path d="M0.305,0.008C0.268,0.008 0.233,-0.002 0.2,-0.022C0.167,-0.041 0.143,-0.067 0.128,-0.098L0.136,-0.115L0.136,0.188L0.089,0.188L0.089,-0.394L0.131,-0.394L0.136,-0.266L0.127,-0.295C0.144,-0.326 0.17,-0.352 0.203,-0.373C0.236,-0.393 0.273,-0.403 0.312,-0.403C0.349,-0.403 0.383,-0.394 0.413,-0.376C0.443,-0.358 0.467,-0.334 0.485,-0.303C0.502,-0.272 0.511,-0.236 0.511,-0.196C0.511,-0.157 0.502,-0.122 0.484,-0.091C0.465,-0.059 0.441,-0.035 0.41,-0.018C0.379,-0.001 0.344,0.008 0.305,0.008ZM0.297,-0.031C0.328,-0.031 0.356,-0.038 0.381,-0.053C0.405,-0.068 0.426,-0.088 0.441,-0.113C0.456,-0.137 0.463,-0.165 0.463,-0.196C0.463,-0.227 0.456,-0.256 0.441,-0.281C0.426,-0.306 0.407,-0.325 0.383,-0.34C0.358,-0.355 0.331,-0.362 0.3,-0.362C0.271,-0.362 0.244,-0.355 0.22,-0.342C0.196,-0.329 0.177,-0.311 0.162,-0.288C0.147,-0.265 0.139,-0.24 0.136,-0.211L0.136,-0.179C0.138,-0.152 0.147,-0.127 0.162,-0.104C0.177,-0.081 0.196,-0.064 0.22,-0.051C0.243,-0.038 0.269,-0.031 0.297,-0.031Z" style="fill:rgb(54,45,59);fill-rule:nonzero;"/>
    </g>
    <g transform="matrix(150.15,0,0,150.15,189.188,107.807)">
        <path d="M0.259,0.008C0.218,0.008 0.182,-0.001 0.151,-0.019C0.12,-0.037 0.095,-0.062 0.078,-0.093C0.06,-0.124 0.051,-0.158 0.051,-0.197C0.051,-0.235 0.06,-0.27 0.079,-0.301C0.098,-0.332 0.123,-0.357 0.155,-0.376C0.186,-0.395 0.221,-0.404 0.26,-0.404C0.307,-0.404 0.346,-0.39 0.378,-0.363C0.409,-0.336 0.432,-0.3 0.446,-0.256L0.104,-0.124L0.09,-0.158L0.403,-0.28L0.393,-0.266C0.382,-0.293 0.365,-0.316 0.342,-0.335C0.319,-0.354 0.29,-0.364 0.257,-0.364C0.227,-0.364 0.2,-0.357 0.176,-0.342C0.152,-0.327 0.133,-0.308 0.119,-0.283C0.104,-0.258 0.097,-0.23 0.097,-0.199C0.097,-0.17 0.104,-0.142 0.118,-0.117C0.131,-0.092 0.15,-0.071 0.175,-0.056C0.2,-0.041 0.228,-0.033 0.26,-0.033C0.281,-0.033 0.302,-0.037 0.322,-0.045C0.341,-0.053 0.359,-0.063 0.374,-0.076L0.398,-0.042C0.379,-0.027 0.358,-0.015 0.334,-0.006C0.309,0.003 0.284,0.008 0.259,0.008Z" style="fill:rgb(54,45,59);fill-rule:nonzero;"/>
    </g>
    <g transform="matrix(150.15,0,0,150.15,259.308,107.807)">
        <path d="M0.13,-0.391L0.135,-0.268L0.129,-0.292C0.14,-0.326 0.162,-0.353 0.194,-0.373C0.225,-0.392 0.26,-0.402 0.299,-0.402C0.336,-0.402 0.365,-0.391 0.388,-0.37C0.411,-0.348 0.422,-0.32 0.423,-0.285L0.423,-0L0.375,-0L0.375,-0.272C0.374,-0.297 0.366,-0.318 0.351,-0.335C0.336,-0.352 0.313,-0.36 0.284,-0.361C0.258,-0.361 0.234,-0.355 0.211,-0.342C0.188,-0.329 0.17,-0.312 0.157,-0.289C0.143,-0.266 0.136,-0.24 0.136,-0.21L0.136,-0L0.089,-0L0.089,-0.391L0.13,-0.391Z" style="fill:rgb(54,45,59);fill-rule:nonzero;"/>
    </g>
    <g transform="matrix(150.15,0,0,150.15,332.431,107.807)">
        <path d="M0.391,-0.038C0.373,-0.023 0.353,-0.012 0.33,-0.004C0.307,0.004 0.284,0.008 0.259,0.008C0.219,0.008 0.183,-0.001 0.152,-0.019C0.121,-0.036 0.096,-0.06 0.078,-0.091C0.06,-0.122 0.051,-0.157 0.051,-0.196C0.051,-0.235 0.06,-0.27 0.079,-0.301C0.098,-0.332 0.123,-0.356 0.154,-0.374C0.185,-0.391 0.218,-0.4 0.255,-0.4C0.282,-0.4 0.308,-0.396 0.331,-0.388C0.354,-0.38 0.375,-0.369 0.392,-0.354L0.367,-0.322C0.353,-0.333 0.337,-0.343 0.318,-0.35C0.299,-0.357 0.279,-0.361 0.258,-0.361C0.229,-0.361 0.202,-0.354 0.178,-0.339C0.153,-0.324 0.134,-0.305 0.12,-0.28C0.105,-0.255 0.098,-0.227 0.098,-0.196C0.098,-0.166 0.105,-0.138 0.12,-0.114C0.134,-0.089 0.154,-0.069 0.179,-0.054C0.204,-0.039 0.231,-0.032 0.262,-0.032C0.282,-0.032 0.301,-0.035 0.318,-0.042C0.335,-0.048 0.351,-0.056 0.365,-0.067L0.391,-0.038Z" style="fill:rgb(54,45,59);fill-rule:nonzero;"/>
    </g>
    <g transform="matrix(150.15,0,0,150.15,395.494,107.807)">
        <path d="M0.13,-0.391L0.135,-0.271L0.129,-0.286C0.138,-0.31 0.151,-0.331 0.17,-0.348C0.189,-0.365 0.21,-0.379 0.233,-0.388C0.256,-0.397 0.278,-0.402 0.299,-0.402L0.297,-0.356C0.267,-0.356 0.24,-0.349 0.216,-0.336C0.191,-0.323 0.172,-0.305 0.158,-0.283C0.143,-0.26 0.136,-0.235 0.136,-0.207L0.136,-0L0.089,-0L0.089,-0.391L0.13,-0.391Z" style="fill:rgb(54,45,59);fill-rule:nonzero;"/>
    </g>
    <g transform="matrix(150.15,0,0,150.15,441.44,107.807)">
        <path d="M0.251,0.008C0.214,0.008 0.18,-0.001 0.15,-0.018C0.119,-0.035 0.095,-0.058 0.078,-0.089C0.06,-0.12 0.051,-0.155 0.051,-0.196C0.051,-0.239 0.06,-0.277 0.079,-0.308C0.098,-0.338 0.123,-0.362 0.155,-0.379C0.187,-0.395 0.223,-0.403 0.264,-0.403C0.299,-0.403 0.331,-0.393 0.363,-0.372C0.394,-0.351 0.416,-0.325 0.429,-0.294L0.422,-0.28L0.428,-0.391L0.47,-0.391L0.47,-0L0.423,-0L0.423,-0.121L0.433,-0.103C0.428,-0.09 0.42,-0.077 0.409,-0.064C0.398,-0.05 0.384,-0.039 0.368,-0.028C0.351,-0.017 0.333,-0.008 0.314,-0.002C0.294,0.005 0.273,0.008 0.251,0.008ZM0.261,-0.032C0.29,-0.032 0.317,-0.038 0.341,-0.051C0.364,-0.063 0.383,-0.08 0.398,-0.102C0.413,-0.124 0.421,-0.149 0.423,-0.178L0.423,-0.234C0.418,-0.259 0.407,-0.281 0.392,-0.3C0.376,-0.319 0.357,-0.335 0.334,-0.346C0.311,-0.357 0.287,-0.363 0.26,-0.363C0.231,-0.363 0.204,-0.356 0.179,-0.343C0.154,-0.329 0.135,-0.31 0.12,-0.285C0.105,-0.26 0.098,-0.231 0.098,-0.198C0.098,-0.167 0.105,-0.139 0.12,-0.115C0.135,-0.09 0.155,-0.069 0.18,-0.055C0.204,-0.04 0.232,-0.032 0.261,-0.032Z" style="fill:rgb(54,45,59);fill-rule:nonzero;"/>
    </g>
    <g transform="matrix(150.15,0,0,150.15,522.821,107.807)">
        <path d="M0.128,-0.563L0.176,-0.563L0.176,-0.386L0.297,-0.386L0.297,-0.348L0.176,-0.348L0.176,-0L0.128,-0L0.128,-0.348L0.045,-0.348L0.045,-0.386L0.128,-0.386L0.128,-0.563Z" style="fill:rgb(54,45,59);fill-rule:nonzero;"/>
    </g>
    <g transform="matrix(150.15,0,0,150.15,568.466,107.807)">
        <path d="M0.259,0.008C0.218,0.008 0.182,-0.001 0.151,-0.019C0.12,-0.037 0.095,-0.062 0.078,-0.093C0.06,-0.124 0.051,-0.158 0.051,-0.197C0.051,-0.235 0.06,-0.27 0.079,-0.301C0.098,-0.332 0.123,-0.357 0.155,-0.376C0.186,-0.395 0.221,-0.404 0.26,-0.404C0.307,-0.404 0.346,-0.39 0.378,-0.363C0.409,-0.336 0.432,-0.3 0.446,-0.256L0.104,-0.124L0.09,-0.158L0.403,-0.28L0.393,-0.266C0.382,-0.293 0.365,-0.316 0.342,-0.335C0.319,-0.354 0.29,-0.364 0.257,-0.364C0.227,-0.364 0.2,-0.357 0.176,-0.342C0.152,-0.327 0.133,-0.308 0.119,-0.283C0.104,-0.258 0.097,-0.23 0.097,-0.199C0.097,-0.17 0.104,-0.142 0.118,-0.117C0.131,-0.092 0.15,-0.071 0.175,-0.056C0.2,-0.041 0.228,-0.033 0.26,-0.033C0.281,-0.033 0.302,-0.037 0.322,-0.045C0.341,-0.053 0.359,-0.063 0.374,-0.076L0.398,-0.042C0.379,-0.027 0.358,-0.015 0.334,-0.006C0.309,0.003 0.284,0.008 0.259,0.008Z" style="fill:rgb(54,45,59);fill-rule:nonzero;"/>
    </g>
    <g transform="matrix(150.15,0,0,150.15,638.586,107.807)">
        <path d="M0.13,-0.391L0.135,-0.271L0.129,-0.286C0.138,-0.31 0.151,-0.331 0.17,-0.348C0.189,-0.365 0.21,-0.379 0.233,-0.388C0.256,-0.397 0.278,-0.402 0.299,-0.402L0.297,-0.356C0.267,-0.356 0.24,-0.349 0.216,-0.336C0.191,-0.323 0.172,-0.305 0.158,-0.283C0.143,-0.26 0.136,-0.235 0.136,-0.207L0.136,-0L0.089,-0L0.089,-0.391L0.13,-0.391Z" style="fill:rgb(54,45,59);fill-rule:nonzero;"/>
    </g>
    <g transform="matrix(0.638537,0,0,0.638537,-173.037,-159.515)">
        <circle cx="382.072" cy="356.335" r="27.225" style="fill:rgb(239,124,95);"/>
    </g>
    <g transform="matrix(0.576272,0,0,0.576272,-158.616,-138.115)">
        <circle cx="382.072" cy="356.335" r="27.225" style="fill:none;stroke:rgb(54,45,59);stroke-width:12.15px;"/>
    </g>
</svg>
